<svg xmlns="http://www.w3.org/2000/svg" width="512" height="512" viewBox="0 0 512 512" version="1.1">
	<path d="M 248.893 11.750 C 247.637 15.014, 244.037 28.989, 244.015 30.685 C 244.007 31.337, 243.547 33.060, 242.994 34.515 L 241.989 37.160 237.599 33.296 C 227.845 24.710, 214.156 19.989, 199.090 20.015 C 187.229 20.035, 172 23.910, 172 26.908 C 172 27.379, 175.812 28.953, 180.471 30.406 C 185.131 31.858, 190.118 34.058, 191.555 35.293 C 194.122 37.502, 194.134 37.569, 192.235 39.287 C 190.542 40.819, 189.452 40.912, 183.402 40.037 C 175.830 38.943, 157.923 38.851, 148.500 39.859 C 143.380 40.406, 142.500 40.793, 142.500 42.500 C 142.500 44.490, 143.703 45.039, 153.786 47.649 L 157.072 48.500 146.056 56.250 C 139.996 60.512, 134.549 64, 133.950 64 C 133.350 64, 130.979 62.712, 128.680 61.137 C 115.119 51.848, 98.923 48.148, 84.799 51.112 C 76.932 52.763, 62.330 60.646, 56.340 66.477 C 49.177 73.449, 48.077 77.763, 50.860 87.968 C 51.989 92.111, 53.414 100.675, 54.025 107 C 56.285 130.383, 58.686 137.052, 68.128 146.171 C 74.434 152.261, 74.966 153.637, 72.250 156.848 C 68.912 160.795, 47.458 178.192, 39.191 183.656 C 34.621 186.676, 31.039 189.676, 31.230 190.323 C 31.868 192.481, 42.603 196.916, 50.098 198.118 C 54.169 198.771, 57.643 199.417, 57.818 199.554 C 57.993 199.691, 55.234 204.010, 51.686 209.152 C 39.813 226.359, 33.106 242.513, 30.367 260.500 C 28.740 271.176, 29.168 283.755, 31.417 291.377 L 32.633 295.500 37.422 288 C 42.458 280.111, 49.820 271.771, 51.067 272.541 C 52.062 273.156, 48.968 286.971, 44.631 301.275 C 37.932 323.372, 36.533 337.158, 39.445 352.374 C 41.024 360.631, 42.579 364.378, 44.048 363.470 C 44.570 363.148, 46.127 360.493, 47.510 357.570 C 50.633 350.969, 56.629 343, 58.474 343 C 59.408 343, 60.027 344.703, 60.382 348.250 C 62.423 368.611, 63.532 376.884, 65.560 386.884 C 66.830 393.146, 68.310 398.710, 68.849 399.249 C 70.275 400.675, 72.544 395.745, 75.036 385.810 C 77.157 377.354, 80.536 369.972, 82.595 369.296 C 83.197 369.099, 85.377 373.009, 87.440 377.986 C 94.975 396.166, 105.445 408.750, 126.667 425.136 C 136.162 432.467, 137.876 434.263, 140.544 439.678 C 142.218 443.076, 144.622 449.866, 145.885 454.767 C 149.021 466.932, 149.468 467.458, 151.930 461.892 C 155.240 454.408, 156.231 447.560, 155.798 435.158 C 155.332 421.826, 149.273 388.760, 147.784 391.422 C 147.314 392.262, 146.654 398.248, 146.318 404.724 C 145.982 411.201, 145.387 417.390, 144.997 418.478 C 144.364 420.243, 144.097 420.088, 142.519 417.037 C 137.680 407.680, 135.793 399.717, 135.283 386.500 C 134.726 372.096, 136.493 361.726, 141.390 350.653 C 142.765 347.544, 143.536 345, 143.103 345 C 141.681 345, 130.413 357.384, 126.604 363.134 C 124.551 366.232, 121.786 371.407, 120.459 374.634 C 119.133 377.860, 118.037 380.263, 118.024 379.974 C 118.011 379.684, 117.536 375.747, 116.969 371.224 C 115.023 355.709, 118.778 339.107, 126.957 327.063 C 129.317 323.589, 134.454 317.339, 138.374 313.176 C 146.190 304.872, 143.030 306.375, 132.843 315.806 C 121.872 325.963, 114.171 337.610, 109.903 350.500 C 108.089 355.978, 107.576 359.783, 107.543 368 C 107.519 373.775, 107.846 380.062, 108.269 381.972 L 109.039 385.444 105.084 381.582 C 102.909 379.459, 99.638 374.971, 97.815 371.610 C 94.602 365.688, 94.501 365.147, 94.525 354 C 94.544 345.076, 95.061 340.708, 96.835 334.500 C 99.743 324.324, 106.924 309.106, 111.977 302.414 C 117.654 294.895, 121.893 292.583, 129.951 292.610 C 136.768 292.633, 152.012 294.718, 153.638 295.849 C 154.153 296.207, 155.127 299.875, 155.802 304 C 157.956 317.154, 163.621 326.102, 176.500 336.695 L 181.500 340.808 182.103 352.154 C 183.179 372.410, 190.778 388.158, 202.432 394.283 C 205.838 396.073, 208.025 396.394, 215.871 396.255 L 225.241 396.088 230.933 401.517 C 238.735 408.959, 244.485 411.416, 254 411.372 C 263.578 411.329, 269.391 408.839, 277.113 401.473 L 282.852 396 294.176 395.984 C 304.041 395.969, 306.009 395.679, 309.453 393.728 C 314.698 390.757, 319.200 384.668, 322.321 376.324 C 326.354 365.539, 326.988 362.159, 326.994 351.429 L 327 341.359 333.375 336.250 C 345.022 326.917, 352.020 315.751, 354.204 303.017 C 355.387 296.119, 355.490 295.946, 358.956 295.051 C 360.905 294.547, 366.642 293.648, 371.706 293.053 C 386.881 291.268, 391.751 293.344, 399.409 304.864 C 404.646 312.741, 409.047 322.159, 412.249 332.340 C 414.101 338.232, 414.500 341.803, 414.500 352.500 C 414.500 363.670, 414.199 366.151, 412.363 370.122 C 410.175 374.853, 403.999 382.395, 400.996 384.002 C 399.450 384.829, 399.424 384.495, 400.660 379.732 C 403.331 369.431, 401.868 354.857, 397.029 343.567 C 393.613 335.599, 386.603 325.865, 377.941 317.062 C 373.485 312.533, 369.615 309.052, 369.341 309.325 C 369.068 309.599, 371.794 313.343, 375.400 317.645 C 383.071 326.799, 387.267 334.814, 390.017 345.568 C 392.023 353.408, 392.639 368.512, 391.113 372.401 C 390.480 374.016, 389.936 373.563, 387.512 369.401 C 383.448 362.427, 377.878 355.137, 373.100 350.539 L 368.984 346.579 371.944 355.335 C 377.601 372.070, 378.253 386.572, 374.030 401.702 C 371.773 409.787, 367.226 420, 365.883 420 C 365.397 420, 364.993 415.387, 364.985 409.750 C 364.976 404.113, 364.590 398.902, 364.127 398.171 C 363.291 396.853, 360.309 405.222, 356.333 420.041 C 353.949 428.924, 353.885 448.458, 356.214 456 C 358.016 461.839, 360.425 465.908, 361.463 464.870 C 361.808 464.525, 362.937 460.701, 363.972 456.372 C 367.587 441.245, 370.975 435.798, 382 427.385 C 404.955 409.866, 416.049 396.609, 423.546 377.738 C 425.331 373.245, 427.264 369.412, 427.842 369.219 C 429.437 368.688, 432.381 375.220, 436.511 388.460 C 440.192 400.259, 440.266 400.390, 442.015 398.230 C 442.990 397.026, 444.318 392.996, 444.966 389.275 C 446.411 380.977, 448.946 355.321, 448.995 348.500 C 449.052 340.484, 450.180 339.813, 455.028 344.909 C 457.304 347.301, 460.591 352.202, 462.333 355.799 C 464.075 359.396, 466.001 362.505, 466.613 362.707 C 469.301 363.596, 472.083 351.361, 472.083 338.648 C 472.083 327.217, 470.382 317.501, 466.065 304.276 C 463.198 295.493, 460.009 274.658, 461.329 273.338 C 462.518 272.148, 468.255 278.554, 473.500 286.927 C 476.250 291.317, 478.816 294.929, 479.203 294.955 C 482.451 295.165, 482.945 270.453, 479.984 255.923 C 476.335 238.015, 471.273 226.302, 459.782 209.176 L 452.817 198.794 466.329 199.142 C 473.761 199.334, 480.165 199.168, 480.560 198.773 C 482.426 196.907, 463.988 177.398, 449.494 165.901 C 443.833 161.410, 438.689 156.613, 438.064 155.241 C 437.016 152.942, 437.388 152.265, 442.801 146.623 C 451.405 137.655, 453.784 130.589, 455.973 107.500 C 456.599 100.900, 457.989 92.310, 459.063 88.411 C 461.070 81.121, 460.908 76.846, 458.443 72 C 455.756 66.720, 445.726 59.134, 434.230 53.688 C 427.993 50.734, 426.730 50.500, 417 50.500 C 402.934 50.500, 396.429 52.711, 380.446 62.924 C 378.608 64.098, 377.606 63.712, 370.946 59.261 C 366.851 56.524, 360.800 52.834, 357.500 51.062 L 351.500 47.840 361.646 48.493 C 373.643 49.265, 375.334 48.216, 368.046 44.523 C 359.035 39.957, 351.148 38.721, 335.906 39.487 C 323.999 40.085, 322.108 39.965, 320.656 38.514 C 319.745 37.603, 319 36.673, 319 36.449 C 319 35.759, 326.595 32.121, 332.704 29.885 C 343.616 25.891, 343.095 23.879, 330.528 21.474 C 309.725 17.494, 288.770 22.124, 276.211 33.475 C 273.302 36.104, 270.769 38.085, 270.581 37.878 C 270.394 37.670, 268.999 35.025, 267.482 32 C 262.488 22.044, 253.020 9, 250.788 9 C 250.327 9, 249.474 10.238, 248.893 11.750 M 253.687 29.083 C 253.358 30.962, 252.780 40.933, 252.402 51.241 L 251.716 69.981 249.327 64.824 C 244.259 53.886, 235.202 43.318, 225.787 37.358 C 220.533 34.032, 209.546 30.050, 205.546 30.021 C 202.902 30.002, 203.380 30.517, 210.103 34.931 C 218.926 40.723, 229.794 51.821, 236.778 62.171 C 242.537 70.706, 250.947 87.149, 253.439 94.750 C 254.386 97.638, 255.462 100, 255.830 100 C 256.199 99.999, 257.758 96.287, 259.295 91.750 C 268.188 65.506, 282.940 45.801, 302.931 33.462 C 306.286 31.391, 308.851 29.518, 308.632 29.298 C 308.413 29.079, 304.688 30.071, 300.356 31.503 C 287.317 35.813, 276.843 45.124, 269.164 59.233 C 267.149 62.936, 265.221 65.974, 264.879 65.983 C 264.538 65.992, 263.940 62.769, 263.551 58.819 C 262.675 49.935, 258.838 34.540, 256.233 29.463 L 254.285 25.666 253.687 29.083 M 327.289 62.441 C 314.211 65.426, 294.777 78.338, 283.689 91.408 C 274.098 102.713, 262.810 121.640, 256.936 136.264 L 254.620 142.028 251.964 134.764 C 240.331 102.949, 222.219 80.795, 197.818 68.533 C 186.818 63.005, 180.413 61.685, 167.086 62.197 C 156.009 62.623, 142.307 66.035, 141.318 68.615 C 140.716 70.183, 146.055 78.111, 149.579 80.884 C 151.915 82.721, 153.445 82.901, 165.333 82.736 C 176.893 82.576, 179.183 82.827, 184.095 84.791 C 190.340 87.288, 200.390 95.800, 204.995 102.493 C 207.785 106.547, 212.486 117, 211.520 117 C 211.272 117, 208.217 115.433, 204.732 113.517 C 195.682 108.542, 185.778 106.474, 177.754 107.883 C 167.994 109.596, 159.550 114.288, 151.122 122.682 C 144.325 129.452, 143.792 129.791, 144.351 126.995 C 145.391 121.794, 150.332 112.709, 154.275 108.744 C 158.013 104.987, 158.023 104.956, 155.275 105.616 C 153.749 105.982, 148.225 107.786, 143 109.624 C 137.775 111.462, 131.104 113.418, 128.176 113.971 C 123.309 114.890, 115.073 119.448, 115.021 121.250 C 115.010 121.662, 118.466 122, 122.703 122 L 130.406 122 126.453 126.049 C 117.246 135.478, 101.882 138.497, 88.748 133.457 C 85.914 132.369, 86.723 134.404, 91.102 139.379 C 96.256 145.234, 98.090 146.206, 105.347 146.922 L 111.194 147.500 106.339 152.556 C 99.227 159.964, 86.912 167.841, 75.855 172.055 C 70.514 174.091, 62.202 178.174, 57.384 181.128 L 48.623 186.500 53.562 187.412 C 62.183 189.005, 74.946 186.775, 84.262 182.048 C 88.650 179.822, 92.338 178, 92.457 178 C 92.577 178, 88.796 181.938, 84.056 186.750 C 65.717 205.368, 48.493 231.789, 44.075 248.079 C 41.604 257.189, 40.040 267, 41.058 267 C 42.080 267, 47.864 260.006, 61.022 242.860 C 70.785 230.138, 85.740 213.407, 86.590 214.257 C 86.761 214.428, 84.442 219.363, 81.435 225.224 C 78.429 231.085, 74.411 239.912, 72.508 244.841 C 69.086 253.702, 61 280.980, 61 283.664 C 61 285.662, 65.121 283.347, 71.832 277.581 C 74.764 275.062, 77.386 273, 77.659 273 C 77.931 273, 75.108 277.387, 71.384 282.750 C 67.660 288.113, 62.809 295.200, 60.605 298.500 C 53.434 309.235, 48.499 325.152, 49.177 335.362 L 49.500 340.224 57.928 332.691 L 66.356 325.158 68.074 316.829 C 70.774 303.731, 78.618 287.195, 88.823 273.081 C 95.261 264.178, 95.217 264.273, 94.007 262.013 C 92.610 259.403, 93.137 259.475, 97.600 262.503 C 99.628 263.880, 102.993 265.517, 105.076 266.141 L 108.865 267.276 103.500 274 C 88.936 292.253, 78.541 312.623, 75.052 329.747 C 73.120 339.226, 72.202 357.868, 73.598 359.264 C 75.319 360.985, 77.909 357.154, 85.864 341.120 C 96.197 320.293, 104.180 307.153, 111.092 299.589 C 120.139 289.691, 124.328 288.306, 139.613 290.160 C 145.051 290.820, 151.006 291.391, 152.847 291.430 L 156.195 291.500 159.995 281 C 162.085 275.225, 164.516 268.827, 165.397 266.782 C 166.279 264.737, 167 262.646, 167 262.135 C 167 261.624, 163.965 260.677, 160.255 260.031 C 151.388 258.487, 143.026 255.627, 134.852 251.343 C 129.042 248.298, 127.825 247.143, 125.202 242.180 C 121.121 234.456, 117.592 222.784, 115.011 208.464 C 113.825 201.884, 112.231 195.532, 111.469 194.349 C 110.707 193.165, 108.080 191.432, 105.632 190.497 C 100.432 188.511, 100.033 187.536, 100.014 176.769 C 100 169.144, 100.038 169.030, 102.750 168.432 C 104.263 168.099, 109.325 166.771, 114 165.480 C 145.760 156.709, 159.593 154.425, 175.500 155.325 C 199.255 156.668, 217.689 163.298, 230.497 175.104 L 234.754 179.028 241.627 177.382 C 252.303 174.825, 262.441 175.207, 274.202 178.612 C 275.304 178.931, 278.070 177.113, 282.051 173.453 C 289.394 166.703, 297.254 162.835, 310.415 159.496 C 331.063 154.259, 352.802 154.024, 370.500 158.848 C 374.350 159.897, 383.800 162.404, 391.500 164.419 C 411.540 169.662, 410 168.581, 410 177.413 C 410 187.334, 409.065 189.549, 404.416 190.649 C 398.696 192.002, 397.288 194.846, 394.527 210.619 C 391.344 228.806, 387.260 241.080, 382.841 245.742 C 378.508 250.315, 365.084 256.557, 354.129 259.093 C 349.383 260.191, 344.937 261.281, 344.249 261.514 C 343.335 261.824, 343.829 264.166, 346.087 270.219 C 347.786 274.774, 350.282 281.703, 351.634 285.618 L 354.092 292.736 360.325 291.430 C 370.677 289.260, 381.068 288.662, 385.868 289.960 C 395.121 292.462, 407.649 308.285, 419.546 332.500 C 429.217 352.183, 433.074 359, 434.540 359 C 436.420 359, 437.208 346.661, 436.005 336.041 C 433.751 316.150, 422.508 291.687, 407.157 273.273 L 401.966 267.047 404.733 266.381 C 408.586 265.455, 414.380 262.452, 415.939 260.573 C 418.064 258.013, 418.884 258.767, 417.804 262.287 C 416.856 265.375, 417.194 266.162, 423.397 275.311 C 427.028 280.667, 431.589 288.205, 433.532 292.063 C 437.980 300.897, 442.995 315.748, 443.015 320.148 C 443.028 323.080, 444.124 324.497, 451.765 331.461 L 460.500 339.422 460.798 334.325 C 461.479 322.691, 455.637 307.644, 442.742 287.819 C 432.256 271.697, 431.773 270.718, 436.240 274.639 C 441.558 279.306, 449.056 284.277, 449.743 283.590 C 450.781 282.553, 446.072 260.978, 442.433 250.098 C 438.823 239.305, 433.093 226.593, 428.529 219.250 C 427.076 216.912, 426.314 215, 426.836 215 C 428.542 215, 438.558 226.580, 454.051 246.467 C 462.420 257.210, 469.663 266, 470.146 266 C 472.504 266, 466.615 244.217, 461.091 232.505 C 454.801 219.169, 443.590 204.079, 427.102 186.753 L 418.518 177.732 425.509 181.247 C 433.098 185.064, 439.122 186.519, 451.500 187.526 L 459.500 188.178 455.500 184.024 C 451.543 179.915, 442.812 175.179, 428.600 169.436 C 419.354 165.700, 411.837 160.500, 404 152.423 C 400.425 148.738, 398.104 146.063, 398.843 146.478 C 401.027 147.706, 407.636 147.241, 410.676 145.646 C 414.278 143.757, 420.322 137.410, 422.337 133.402 L 423.895 130.303 419.727 132.365 C 416.706 133.860, 413.008 134.538, 406.283 134.833 C 397.819 135.203, 396.531 135.005, 391.572 132.579 C 388.583 131.116, 384.668 128.250, 382.873 126.210 L 379.608 122.500 385.554 122.225 C 394.431 121.813, 394.905 121.376, 390.211 117.924 C 387.398 115.855, 384.126 114.587, 379.804 113.892 C 376.337 113.335, 369.604 111.125, 364.843 108.981 C 360.081 106.838, 354.983 104.783, 353.514 104.414 C 350.966 103.775, 351.029 103.943, 354.905 108.122 C 359.053 112.594, 365.348 124.226, 366.497 129.542 L 367.136 132.500 364.898 129.500 C 360.881 124.118, 352.046 116.173, 346.633 113.076 C 339.368 108.920, 329.941 106.617, 323.620 107.456 C 317.029 108.330, 308.585 111.347, 303.724 114.564 C 301.575 115.986, 299.628 116.961, 299.398 116.731 C 298.715 116.048, 301.864 107.908, 304.647 103.158 C 310.637 92.938, 319.345 86.151, 329.957 83.432 C 335.530 82.005, 337.519 81.956, 345.495 83.051 C 350.526 83.742, 355.837 84.007, 357.299 83.640 C 360.168 82.920, 367.501 75.808, 370.354 70.978 C 372.112 68.002, 372.109 67.992, 369.465 66.987 C 356.458 62.041, 337.831 60.034, 327.289 62.441 M 324.326 75.044 C 319.662 75.967, 314.501 78.381, 313.406 80.152 C 312.869 81.021, 314.450 81.152, 319.593 80.666 C 323.392 80.308, 330.775 79.996, 336 79.974 C 345.444 79.934, 345.487 79.922, 343.239 78.047 C 341.995 77.010, 338.710 75.675, 335.939 75.080 C 330.344 73.880, 330.215 73.880, 324.326 75.044 M 168 77.152 L 163.500 79.382 179.500 80.180 C 188.300 80.618, 195.950 80.828, 196.500 80.647 C 197.050 80.465, 195.475 79.267, 193 77.985 C 186.307 74.519, 174.132 74.113, 168 77.152 M 89.386 81.562 C 81.184 86.962, 78.321 94.524, 79.214 108.429 C 79.763 116.983, 82.718 123.223, 87.862 126.687 C 91.708 129.278, 97.168 130.562, 99.742 129.482 C 101.140 128.896, 100.783 128.551, 98 127.799 C 96.075 127.279, 93.825 126.166, 93 125.326 C 91.659 123.961, 91.844 123.871, 94.750 124.479 C 98.428 125.248, 104 124.310, 104 122.921 C 104 122.414, 103.082 122, 101.960 122 C 99.192 122, 92.947 118.714, 90.500 115.970 L 88.500 113.726 91.700 115.363 C 96.375 117.754, 103.722 117.413, 111.128 114.460 L 117.500 111.920 108.500 112.374 C 98.220 112.893, 92.578 111.741, 100.250 110.689 C 102.816 110.338, 107.747 109.073, 111.207 107.878 C 114.668 106.683, 118.362 105.750, 119.415 105.803 C 121.070 105.887, 121.136 105.708, 119.907 104.479 C 118.737 103.309, 117.268 103.246, 111.611 104.127 C 105.013 105.154, 94.480 104.600, 93.619 103.180 C 93.393 102.806, 95.318 102.459, 97.897 102.408 C 100.476 102.358, 105.933 101.497, 110.024 100.494 L 117.462 98.671 108.481 96.359 C 90.974 91.853, 90.624 91.384, 105.110 91.835 C 112.937 92.079, 118 91.860, 118 91.279 C 118 90.084, 113.552 88, 111.002 88 C 109.955 88, 106.714 87.439, 103.799 86.753 L 98.500 85.505 105.500 85.003 L 112.500 84.500 108.500 82.084 C 105.986 80.566, 102.457 79.517, 99 79.261 C 94.303 78.913, 92.900 79.249, 89.386 81.562 M 404.415 81.023 C 402.169 82.136, 399.019 84.449, 397.415 86.165 L 394.500 89.285 397 88.629 C 398.375 88.268, 401.525 87.739, 404 87.453 L 408.500 86.932 404 88.910 C 401.525 89.998, 398.600 90.920, 397.500 90.959 C 396.400 90.999, 394.825 91.475, 394 92.017 C 392.553 92.969, 401.585 92.666, 411.324 91.436 C 413.427 91.170, 414.904 91.346, 414.607 91.827 C 413.962 92.870, 402.034 96.727, 395.873 97.883 C 393.465 98.336, 392.174 98.949, 393 99.248 C 397.027 100.708, 409.295 102.224, 413.032 101.723 C 416.247 101.291, 416.966 101.435, 416.075 102.329 C 415.365 103.041, 409.934 103.696, 402.204 104 L 389.500 104.500 396.807 107.250 C 400.826 108.762, 405.551 110.053, 407.307 110.118 L 410.500 110.237 407.500 110.956 C 405.850 111.352, 401.913 111.505, 398.750 111.297 C 395.587 111.088, 393 111.186, 393 111.515 C 393 111.844, 395.137 113.059, 397.750 114.216 C 404.321 117.126, 412.398 117.143, 417.291 114.256 C 420.432 112.403, 420.897 112.323, 420.117 113.769 C 417.787 118.090, 410.039 123, 405.550 123 C 404.147 123, 403 123.429, 403 123.952 C 403 124.476, 405.813 125.039, 409.250 125.202 L 415.500 125.500 412 127.411 C 407.807 129.701, 409.292 130.537, 414.880 129.032 C 420.477 127.525, 424.418 123.888, 427.694 117.204 C 430.086 112.323, 430.490 110.273, 430.495 103 C 430.502 92.056, 427.893 86.157, 421.160 81.887 C 415.659 78.398, 410.280 78.120, 404.415 81.023 M 150.500 168.418 C 133.102 171.744, 130.917 173.171, 127.869 183.204 C 124.048 195.787, 126.588 220.431, 133.003 233.006 C 136.838 240.523, 145.453 245.440, 160.235 248.549 C 168.814 250.354, 173.662 250.355, 182.163 248.553 C 197.785 245.242, 208.382 236.875, 215.793 222 C 221.795 209.955, 223.672 201.553, 222.236 193.170 C 220.178 181.155, 212.743 174.380, 196.709 169.907 C 186.520 167.065, 161.755 166.267, 150.500 168.418 M 321.342 168.411 C 313.518 169.906, 305.188 172.439, 300.500 174.750 C 290.047 179.902, 285.216 191.765, 287.958 205.545 C 289.668 214.134, 297.935 230.546, 303.382 236.164 C 312.073 245.126, 328.542 250.752, 342.745 249.609 C 351.586 248.898, 364.757 244.683, 369.994 240.890 C 378.639 234.627, 383.167 220.930, 383.346 200.500 C 383.446 189.114, 383.175 186.789, 381.167 181.773 C 378.370 174.788, 375.300 172.421, 365.680 169.832 C 356.129 167.261, 331.495 166.471, 321.342 168.411 M 160 171.927 C 144.991 172.732, 139.708 175.062, 136.022 182.500 C 133.854 186.875, 133.497 189.130, 133.162 200.547 C 132.532 222.058, 136.083 231.329, 147.329 237.538 C 160.139 244.610, 180.701 244.785, 194.127 237.935 C 200.289 234.791, 206.798 227.656, 210.269 220.239 C 212.799 214.832, 213.397 212.251, 213.443 206.538 C 213.545 193.972, 207.945 181.586, 200.194 177.229 C 192.204 172.739, 178.521 170.934, 160 171.927 M 321.045 173.092 C 314.422 174.391, 306.424 178.663, 303.126 182.663 C 298.877 187.818, 296.506 196.026, 296.529 205.500 C 296.546 212.359, 296.991 214.427, 299.650 220 C 304.178 229.490, 308.850 234.322, 317.751 238.722 C 325.314 242.461, 325.518 242.500, 337.447 242.500 C 347.757 242.500, 350.493 242.142, 356.366 240.024 C 364.517 237.085, 371.126 231.642, 373.378 226.013 C 377.768 215.042, 377.635 191.055, 373.137 182.291 C 369.229 174.679, 360.387 171.957, 340.068 172.110 C 332.056 172.170, 323.495 172.612, 321.045 173.092 M 148.025 177.975 C 145.397 180.603, 144.493 184.593, 145.852 187.574 C 146.718 189.476, 147.720 190, 150.493 190 C 153.410 190, 154.377 189.430, 156.011 186.750 C 158.248 183.081, 158.586 178.986, 156.800 177.200 C 154.957 175.357, 150.226 175.774, 148.025 177.975 M 171.242 177.034 C 166.285 179.026, 165.901 185.992, 170.495 190.586 C 173.563 193.654, 175.107 193.622, 178.923 190.411 C 183.078 186.915, 183.284 181.156, 179.365 178.073 C 176.525 175.839, 174.774 175.615, 171.242 177.034 M 352.573 177.323 C 350.150 179.094, 351.145 183.565, 354.969 188.091 C 357.773 191.409, 357.925 191.459, 360.675 189.969 C 364.866 187.697, 365.069 182.915, 361.141 178.987 C 357.898 175.744, 355.397 175.258, 352.573 177.323 M 113.714 177.619 C 113.321 178.012, 113 179.375, 113 180.648 C 113 182.302, 113.737 183.147, 115.585 183.611 C 118.463 184.333, 120.640 182.731, 121.171 179.500 C 121.441 177.857, 120.869 177.447, 117.964 177.202 C 116.020 177.039, 114.107 177.226, 113.714 177.619 M 329.189 179.039 C 326.025 181.986, 326.324 186.478, 329.923 190.077 C 333.753 193.907, 337.100 193.858, 340.411 189.923 C 343.540 186.205, 343.693 183.151, 340.927 179.635 C 338.288 176.280, 332.467 175.984, 329.189 179.039 M 387.590 177.855 C 386.703 179.289, 387.979 181.919, 390.118 183.063 C 392.820 184.509, 396.211 182.495, 395.811 179.682 C 395.566 177.963, 394.723 177.435, 391.843 177.195 C 389.831 177.028, 387.918 177.324, 387.590 177.855 M 246.806 195.339 C 240.687 197.064, 239.240 198.373, 237.931 203.366 C 236.492 208.857, 229.688 223.800, 224.669 232.490 C 216.625 246.417, 208.971 252.215, 191.152 257.877 L 182.500 260.627 176.776 272.063 C 170.064 285.473, 167.542 294.269, 168.300 301.621 C 169.823 316.370, 184.164 331.311, 202.942 337.713 C 211.188 340.524, 220.676 340.668, 228.907 338.106 C 235.757 335.974, 249.488 327.825, 251.004 324.992 C 252.500 322.198, 252.216 310.312, 250.580 307.200 C 247.477 301.298, 240.596 296.206, 226.791 289.595 C 215.630 284.251, 211.959 281.932, 207.041 277.119 C 201.377 271.577, 201 270.920, 201 266.587 L 201 261.965 205.250 266.232 C 207.588 268.580, 210.705 271.481, 212.177 272.680 L 214.853 274.859 215.849 272.004 C 218.144 265.421, 223.419 264.768, 244.256 268.491 C 253.856 270.206, 254.222 270.199, 267.182 268.007 C 285.471 264.914, 291.498 265.974, 294.084 272.735 L 294.939 274.970 297.320 272.735 C 298.629 271.506, 301.527 268.845, 303.760 266.823 L 307.820 263.146 308.439 265.611 C 310.095 272.211, 300.561 281.319, 284.756 288.236 C 273.535 293.146, 266.971 297.705, 262.295 303.836 C 259.180 307.919, 259 308.610, 259 316.450 L 259 324.745 263.410 328.810 C 269.383 334.316, 276.469 337.728, 284.780 339.101 C 298.862 341.426, 316.179 335.251, 328.423 323.538 C 340.886 311.614, 343.958 299.352, 338.374 283.810 C 335.306 275.272, 328.543 261.454, 326.950 260.469 C 326.343 260.094, 323.292 259.191, 320.171 258.463 C 311.894 256.532, 301.797 251.714, 297.063 247.438 C 292.617 243.422, 283.952 230.916, 279.437 222 C 277.905 218.975, 275.250 212.450, 273.536 207.500 C 270.753 199.464, 270.041 198.313, 266.889 196.753 C 262.089 194.379, 252.588 193.710, 246.806 195.339 M 222.750 273.080 C 219.749 274.828, 220.822 275.774, 225.250 275.285 C 228.377 274.940, 231.722 275.630, 237.906 277.895 C 250.042 282.340, 250.545 282.787, 251.980 290.393 C 252.655 293.973, 253.803 297.712, 254.529 298.701 C 255.766 300.384, 255.914 300.334, 256.840 297.909 C 257.385 296.483, 258.150 293.179, 258.542 290.566 C 258.935 287.949, 260.208 284.776, 261.377 283.502 C 264.123 280.509, 278.762 275, 283.968 275 C 286.185 275, 288 274.602, 288 274.117 C 288 272.318, 283.452 272.144, 275.587 273.641 C 261.558 276.312, 250.798 276.445, 238.699 274.097 C 226.521 271.733, 225.207 271.649, 222.750 273.080 M 243.500 345.342 C 238 348.211, 231.103 351.108, 228.174 351.780 C 220.963 353.432, 209.374 353.318, 203.456 351.537 C 200.781 350.732, 198.388 350.279, 198.136 350.531 C 197.067 351.600, 200.323 362.117, 203.057 366.429 C 207.912 374.084, 215.637 375.902, 226.735 372.002 L 232.421 370.003 239.581 377.147 C 247.643 385.192, 250.239 386.914, 254.382 386.965 C 258.444 387.015, 262.994 383.905, 269.923 376.343 L 275.910 369.809 281.205 371.613 C 284.143 372.614, 289.478 373.435, 293.192 373.458 C 299.476 373.497, 300.098 373.292, 303.404 370.091 C 308.428 365.224, 313.681 348.757, 309.724 350.276 C 309.023 350.545, 305.760 351.324, 302.474 352.007 C 290.623 354.470, 273.635 350.984, 260.783 343.452 C 257.544 341.554, 254.579 340.028, 254.196 340.063 C 253.813 340.097, 249 342.473, 243.500 345.342 M 182.869 408.071 C 181.971 409.444, 179.136 414.752, 176.567 419.867 L 171.897 429.166 176.371 436.333 C 178.833 440.275, 185.990 448.965, 192.276 455.644 C 203.621 467.698, 209.584 475.741, 216.081 487.750 C 217.940 491.188, 219.819 494, 220.256 494 C 222.298 494, 223.175 487.817, 222.737 476.500 L 222.273 464.500 237.993 480.750 C 246.639 489.688, 254.067 497, 254.499 497 C 254.931 497, 260.515 491.938, 266.909 485.750 C 273.302 479.563, 280.969 472.478, 283.947 470.006 C 288.795 465.981, 289.283 465.772, 288.616 468.006 C 287.513 471.695, 286.636 488.413, 287.388 491.408 C 287.745 492.834, 288.449 494, 288.951 494 C 289.452 494, 293.243 488.938, 297.375 482.750 C 301.507 476.563, 309.477 466.325, 315.087 460 C 325.049 448.769, 336.513 432.660, 337.619 428.339 C 338.016 426.788, 336.419 423.546, 331.953 416.839 C 328.532 411.703, 325.456 407.185, 325.117 406.801 C 324.777 406.416, 324.444 410.016, 324.376 414.801 C 324.235 424.654, 322.331 430.752, 316.957 438.563 C 313.181 444.051, 298.946 459.280, 298.247 458.580 C 297.996 458.330, 298.951 455.734, 300.368 452.813 C 303.011 447.365, 306.346 434.983, 305.161 435.022 C 304.798 435.034, 303.150 437.100, 301.500 439.613 C 298.085 444.815, 286.487 455.509, 274 464.972 C 269.325 468.514, 262.913 473.984, 259.751 477.126 L 254.002 482.838 250.378 478.416 C 248.385 475.984, 240.847 468.951, 233.627 462.788 C 226.407 456.624, 217.729 448.750, 214.342 445.291 C 210.955 441.831, 207.882 439, 207.512 439 C 206.643 439, 207.708 443.988, 210.155 451.367 C 211.225 454.593, 211.841 457.493, 211.524 457.810 C 210.680 458.654, 199.452 447.423, 194.443 440.725 C 188.680 433.017, 186.046 425.577, 185.198 414.612 C 184.518 405.803, 184.459 405.637, 182.869 408.071" stroke="none" fill="black" fill-rule="evenodd"/>
</svg>